# xmcd
#
# Track frame offsets:
#	150
#	13914
#	26732
#	39410
#	51921
#	64682
#	77667
#	90039
#	102327
#	116008
#	130831
#	141113
#	152565
#	165884
#	175414
#	186142
#	197427
#	209966
#	222087
#	233901
#
# Disc length: 3277 seconds
#
# Revision: 1
# Processed by: cddbd v1.5.1PL2 Copyright (c) Steve Scherf et al.
# Submitted via: EasyCDDAExtractor 6.2.0.3
#
DISCID=0d0ccb14
DTITLE=Various Artist - 10 Blues Legends CD 9
DYEAR=1900
DGENRE=
TTITLE0=Big Bill Broonzy - Worrying You Off My Mind
TTITLE1=Big Bill Broonzy - Too-Too Train
TTITLE2=Big Bill Broonzy - Bull Cow Blues
TTITLE3=Big Bill Broonzy - Long Tall Mama
TTITLE4=Big Bill Broonzy - Just A Dream
TTITLE5=Big Bill Broonzy - I Feel So Good
TTITLE6=Big Bill Broonzy - Roll Their Bones
TTITLE7=Big Bill Broonzy - Why Did You Do That To Me?
TTITLE8=Big Bill Broonzy - Old Man Blues
TTITLE9=Big Bill Broonzy - Saturday Evening Blues
TTITLE10=Lightnin' Hopkins - Lightnin's Boogie
TTITLE11=Lightnin' Hopkins - Honey Babe
TTITLE12=Lightnin' Hopkins - Unpredictable Woman
TTITLE13=Lightnin' Hopkins - Feel So Bad
TTITLE14=Lightnin' Hopkins - Short Haired Woman
TTITLE15=Lightnin' Hopkins - Let Me Play With Your Poodle
TTITLE16=Lightnin' Hopkins - Picture On The Wall
TTITLE17=Lightnin' Hopkins - Sugar On My Mind
TTITLE18=Lightnin' Hopkins - Someday Baby
TTITLE19=Lightnin' Hopkins - Come Back, Baby
EXTD=
EXTT0=
EXTT1=
EXTT2=
EXTT3=
EXTT4=
EXTT5=
EXTT6=
EXTT7=
EXTT8=
EXTT9=
EXTT10=
EXTT11=
EXTT12=
EXTT13=
EXTT14=
EXTT15=
EXTT16=
EXTT17=
EXTT18=
EXTT19=
PLAYORDER=
